<svg class="diagram-root" style="background: #f5f6f6" xmlns="http://www.w3.org/2000/svg" xmlns:xlink="http://www.w3.org/1999/xlink"><style>.diagram-root { font-family: "Helvetica Neue", sans-serif; font-size: 12px; } .t { overflow: visible; } .t-bg { y: 40; fill: #fff;   } .th { fill: #005aa0;   } .tht { fill: #fff; font-size: 14px;  } .tf { fill: #323c46; overflow: visible; } .tf.pk { fill: #005aa0; font-weight: bold; } .tf.fk { font-weight: bold; } .ty { fill: #adb1b5; font-weight: normal; text-anchor: end; } .r { fill: transparent; stroke: #c3c3c3; stroke-width: 1; } .l { stroke: 1; } .i { fill: #c2c7ce; stroke: #c2c7ce; } .i.ix { fill: #afb3b6; stroke: #000; } .fa { fill: transparent; overflow: visible; } .fa .bg.hover { fill: #f7f7f7; } .c { cy: 12; r: 4; stroke: #d2d2dc; fill: #d2d2dc; } .hr { fill: transparent; stroke: #323c46; stroke-opacity: 0.035; stroke-width: 13; } .dc { stroke: #fa5a3c; fill: #fa5a3c; } .x { stroke: white; stroke-width: 1; } .hl .th { fill: #1b9bff; } .hl .tht {  } .fhl .bg { fill: #e7f4ff; } .fhls .bg {  } .r.hl { stroke: #1b9bff; } .dim { opacity: 0.25; }</style><g class="drawing-wrapper" transform="translate(13, -110) scale(1,1)"><g class="rs"><path d="M 776.15 379 m -1, 0 a 1,1 0 1,0 2,0 a 1,1 0 1,0 -2,0 M 776.15 379 m -0.5, 0 a 0.5,0.5 0 1,0 1,0 a 0.5,0.5 0 1,0 -1,0  M776.15 379 L776.15 379 788.15 379 M 776.15 385 m -1, 0 a 1,1 0 1,0 2,0 a 1,1 0 1,0 -2,0 M 776.15 385 m -0.5, 0 a 0.5,0.5 0 1,0 1,0 a 0.5,0.5 0 1,0 -1,0  M776.15 385 L776.15 385 783.15 379 776.15 373 M 776.15 373 m -1, 0 a 1,1 0 1,0 2,0 a 1,1 0 1,0 -2,0 M 776.15 373 m -0.5, 0 a 0.5,0.5 0 1,0 1,0 a 0.5,0.5 0 1,0 -1,0  M788.15 379 Q 809.12 379, 830.08 425 T 872 471 M 884 471 m -1, 0 a 1,1 0 1,0 2,0 a 1,1 0 1,0 -2,0 M 884 471 m -0.5, 0 a 0.5,0.5 0 1,0 1,0 a 0.5,0.5 0 1,0 -1,0  M884 471 L884 471 872 471 M878 477 L878 477 878 465" id="h1537058300" class="r"></path><path d="M 491.83 398 m -1, 0 a 1,1 0 1,0 2,0 a 1,1 0 1,0 -2,0 M 491.83 398 m -0.5, 0 a 0.5,0.5 0 1,0 1,0 a 0.5,0.5 0 1,0 -1,0  M491.83 398 L491.83 398 503.83 398 M497.83 404 L497.83 404 497.83 392 M503.83 398 Q 523.63 398, 543.42 376 T 583 354 M 595 354 m -1, 0 a 1,1 0 1,0 2,0 a 1,1 0 1,0 -2,0 M 595 354 m -0.5, 0 a 0.5,0.5 0 1,0 1,0 a 0.5,0.5 0 1,0 -1,0  M595 354 L595 354 583 354 M589 360 L589 360 589 348" id="h1139284389" class="r"></path><path d="M 310 423 m -1, 0 a 1,1 0 1,0 2,0 a 1,1 0 1,0 -2,0 M 310 423 m -0.5, 0 a 0.5,0.5 0 1,0 1,0 a 0.5,0.5 0 1,0 -1,0  M310 423 L310 423 298 423 M 310 429 m -1, 0 a 1,1 0 1,0 2,0 a 1,1 0 1,0 -2,0 M 310 429 m -0.5, 0 a 0.5,0.5 0 1,0 1,0 a 0.5,0.5 0 1,0 -1,0  M310 429 L310 429 303 423 310 417 M 310 417 m -1, 0 a 1,1 0 1,0 2,0 a 1,1 0 1,0 -2,0 M 310 417 m -0.5, 0 a 0.5,0.5 0 1,0 1,0 a 0.5,0.5 0 1,0 -1,0  M298 423 Q 275.05 423, 252.09 358 T 206.18 293 M 194.18 293 m -1, 0 a 1,1 0 1,0 2,0 a 1,1 0 1,0 -2,0 M 194.18 293 m -0.5, 0 a 0.5,0.5 0 1,0 1,0 a 0.5,0.5 0 1,0 -1,0  M194.18 293 L194.18 293 206.18 293 M 194.18 299 m -1, 0 a 1,1 0 1,0 2,0 a 1,1 0 1,0 -2,0 M 194.18 299 m -0.5, 0 a 0.5,0.5 0 1,0 1,0 a 0.5,0.5 0 1,0 -1,0  M194.18 299 L194.18 299 201.18 293 194.18 287 M 194.18 287 m -1, 0 a 1,1 0 1,0 2,0 a 1,1 0 1,0 -2,0 M 194.18 287 m -0.5, 0 a 0.5,0.5 0 1,0 1,0 a 0.5,0.5 0 1,0 -1,0 " id="h1607168654" class="r"></path><path d="M 312 197 m -1, 0 a 1,1 0 1,0 2,0 a 1,1 0 1,0 -2,0 M 312 197 m -0.5, 0 a 0.5,0.5 0 1,0 1,0 a 0.5,0.5 0 1,0 -1,0  M312 197 L312 197 300 197 M 312 203 m -1, 0 a 1,1 0 1,0 2,0 a 1,1 0 1,0 -2,0 M 312 203 m -0.5, 0 a 0.5,0.5 0 1,0 1,0 a 0.5,0.5 0 1,0 -1,0  M312 203 L312 203 305 197 312 191 M 312 191 m -1, 0 a 1,1 0 1,0 2,0 a 1,1 0 1,0 -2,0 M 312 191 m -0.5, 0 a 0.5,0.5 0 1,0 1,0 a 0.5,0.5 0 1,0 -1,0  M300 197 Q 276.55 197, 253.09 245 T 206.18 293 M 194.18 293 m -1, 0 a 1,1 0 1,0 2,0 a 1,1 0 1,0 -2,0 M 194.18 293 m -0.5, 0 a 0.5,0.5 0 1,0 1,0 a 0.5,0.5 0 1,0 -1,0  M194.18 293 L194.18 293 206.18 293 M200.18 299 L200.18 299 200.18 287" id="h1397587031" class="r"></path><path d="M 493.83 222 m -1, 0 a 1,1 0 1,0 2,0 a 1,1 0 1,0 -2,0 M 493.83 222 m -0.5, 0 a 0.5,0.5 0 1,0 1,0 a 0.5,0.5 0 1,0 -1,0  M493.83 222 L493.83 222 505.83 222 M499.83 228 L499.83 228 499.83 216 M505.83 222 Q 525.13 222, 544.42 288 T 583 354 M 595 354 m -1, 0 a 1,1 0 1,0 2,0 a 1,1 0 1,0 -2,0 M 595 354 m -0.5, 0 a 0.5,0.5 0 1,0 1,0 a 0.5,0.5 0 1,0 -1,0  M595 354 L595 354 583 354 M589 360 L589 360 589 348" id="h2286254435" class="r"></path><path d="M 914 307 m -1, 0 a 1,1 0 1,0 2,0 a 1,1 0 1,0 -2,0 M 914 307 m -0.5, 0 a 0.5,0.5 0 1,0 1,0 a 0.5,0.5 0 1,0 -1,0  M914 307 L914 307 902 307 M908 313 L908 313 908 301 M902 307 Q 873.54 307, 845.08 330.5 T 788.15 354 M 776.15 354 m -1, 0 a 1,1 0 1,0 2,0 a 1,1 0 1,0 -2,0 M 776.15 354 m -0.5, 0 a 0.5,0.5 0 1,0 1,0 a 0.5,0.5 0 1,0 -1,0  M776.15 354 L776.15 354 788.15 354 M 776.15 360 m -1, 0 a 1,1 0 1,0 2,0 a 1,1 0 1,0 -2,0 M 776.15 360 m -0.5, 0 a 0.5,0.5 0 1,0 1,0 a 0.5,0.5 0 1,0 -1,0  M776.15 360 L776.15 360 783.15 354 776.15 348 M 776.15 348 m -1, 0 a 1,1 0 1,0 2,0 a 1,1 0 1,0 -2,0 M 776.15 348 m -0.5, 0 a 0.5,0.5 0 1,0 1,0 a 0.5,0.5 0 1,0 -1,0 " id="h3177548053" class="r"></path></g><g class="hrs"></g><g class="ts"><svg width="181.15" height="225" x="595" y="297" id="h1639608377" class="t"><rect height="40" width="181.15" class="th"></rect><text x="13" y="25" class="tht">employees</text><rect height="185" width="181.15" class="t-bg" y="40"></rect><text x="13" y="61" class="tf pk">emp_no<tspan x="168.15" class="ty">INT</tspan></text><path d="M7,14A2,2 0 0,1 5,12A2,2 0 0,1 7,10A2,2 0 0,1 9,12A2,2 0 0,1 7,14M12.65,10C11.83,7.67 9.61,6 7, 6A6, 6 0 0, 0 1, 12A6, 6 0 0, 0 7, 18C9.61, 18 11.83, 16.33 12.65, 14H17V18H21V14H23V10H12.65Z" class="i pk" transform="translate(128.819921875, 48) scale(0.65)"></path><text x="13" y="86" class="tf fk">emp_title_id<tspan x="168.15" class="ty">CHAR(5)</tspan></text><text x="13" y="111" class="tf">birth_date<tspan x="168.15" class="ty">DATE</tspan></text><text x="13" y="136" class="tf">first_name<tspan x="168.15" class="ty">VARCHAR(50)</tspan></text><text x="13" y="161" class="tf">last_name<tspan x="168.15" class="ty">VARCHAR(50)</tspan></text><text x="13" y="186" class="tf">sex<tspan x="168.15" class="ty">CHAR(1)</tspan></text><text x="13" y="211" class="tf">hire_date<tspan x="168.15" class="ty">DATE</tspan></text></svg><svg width="185.18" height="100" x="9" y="236" id="h475896179" class="t"><rect height="40" width="185.18" class="th"></rect><text x="13" y="25" class="tht">departments</text><rect height="60" width="185.18" class="t-bg" y="40"></rect><text x="13" y="61" class="tf pk">dept_no<tspan x="172.18" class="ty">VARCHAR(5)</tspan></text><path d="M7,14A2,2 0 0,1 5,12A2,2 0 0,1 7,10A2,2 0 0,1 9,12A2,2 0 0,1 7,14M12.65,10C11.83,7.67 9.61,6 7, 6A6, 6 0 0, 0 1, 12A6, 6 0 0, 0 7, 18C9.61, 18 11.83, 16.33 12.65, 14H17V18H21V14H23V10H12.65Z" class="i pk" transform="translate(79.72296875, 48) scale(0.65)"></path><text x="13" y="86" class="tf">dept_name<tspan x="172.18" class="ty">VARCHAR(50)</tspan></text></svg><svg width="181.83" height="100" x="310" y="341" id="h1090417462" class="t"><rect height="40" width="181.83" class="th"></rect><text x="13" y="25" class="tht">dept_emp</text><rect height="60" width="181.83" class="t-bg" y="40"></rect><text x="13" y="61" class="tf pk">emp_no<tspan x="168.83" class="ty">INT</tspan></text><path d="M7,14A2,2 0 0,1 5,12A2,2 0 0,1 7,10A2,2 0 0,1 9,12A2,2 0 0,1 7,14M12.65,10C11.83,7.67 9.61,6 7, 6A6, 6 0 0, 0 1, 12A6, 6 0 0, 0 7, 18C9.61, 18 11.83, 16.33 12.65, 14H17V18H21V14H23V10H12.65Z" class="i pk" transform="translate(129.499921875, 48) scale(0.65)"></path><text x="13" y="86" class="tf pk">dept_no<tspan x="168.83" class="ty">VARCHAR(5)</tspan></text><path d="M7,14A2,2 0 0,1 5,12A2,2 0 0,1 7,10A2,2 0 0,1 9,12A2,2 0 0,1 7,14M12.65,10C11.83,7.67 9.61,6 7, 6A6, 6 0 0, 0 1, 12A6, 6 0 0, 0 7, 18C9.61, 18 11.83, 16.33 12.65, 14H17V18H21V14H23V10H12.65Z" class="i pk" transform="translate(76.37296875000001, 73) scale(0.65)"></path></svg><svg width="181.83" height="100" x="312" y="140" id="h1676682957" class="t"><rect height="40" width="181.83" class="th"></rect><text x="13" y="25" class="tht">dept_manager</text><rect height="60" width="181.83" class="t-bg" y="40"></rect><text x="13" y="61" class="tf pk">dept_no<tspan x="168.83" class="ty">VARCHAR(5)</tspan></text><path d="M7,14A2,2 0 0,1 5,12A2,2 0 0,1 7,10A2,2 0 0,1 9,12A2,2 0 0,1 7,14M12.65,10C11.83,7.67 9.61,6 7, 6A6, 6 0 0, 0 1, 12A6, 6 0 0, 0 7, 18C9.61, 18 11.83, 16.33 12.65, 14H17V18H21V14H23V10H12.65Z" class="i pk" transform="translate(76.37296875000001, 48) scale(0.65)"></path><text x="13" y="86" class="tf pk">emp_no<tspan x="168.83" class="ty">INT</tspan></text><path d="M7,14A2,2 0 0,1 5,12A2,2 0 0,1 7,10A2,2 0 0,1 9,12A2,2 0 0,1 7,14M12.65,10C11.83,7.67 9.61,6 7, 6A6, 6 0 0, 0 1, 12A6, 6 0 0, 0 7, 18C9.61, 18 11.83, 16.33 12.65, 14H17V18H21V14H23V10H12.65Z" class="i pk" transform="translate(129.499921875, 73) scale(0.65)"></path></svg><svg width="128.7" height="100" x="914" y="250" id="h2472833127" class="t"><rect height="40" width="128.7" class="th"></rect><text x="13" y="25" class="tht">salaries</text><rect height="60" width="128.7" class="t-bg" y="40"></rect><text x="13" y="61" class="tf pk">emp_no<tspan x="115.69999999999999" class="ty">INT</tspan></text><path d="M7,14A2,2 0 0,1 5,12A2,2 0 0,1 7,10A2,2 0 0,1 9,12A2,2 0 0,1 7,14M12.65,10C11.83,7.67 9.61,6 7, 6A6, 6 0 0, 0 1, 12A6, 6 0 0, 0 7, 18C9.61, 18 11.83, 16.33 12.65, 14H17V18H21V14H23V10H12.65Z" class="i pk" transform="translate(76.36992187499999, 48) scale(0.65)"></path><text x="13" y="86" class="tf">salary<tspan x="115.69999999999999" class="ty">INT</tspan></text></svg><svg width="149.36" height="100" x="884" y="414" id="h311790747" class="t"><rect height="40" width="149.36" class="th"></rect><text x="13" y="25" class="tht">titles</text><rect height="60" width="149.36" class="t-bg" y="40"></rect><text x="13" y="61" class="tf pk">title_id<tspan x="136.36" class="ty">CHAR(5)</tspan></text><path d="M7,14A2,2 0 0,1 5,12A2,2 0 0,1 7,10A2,2 0 0,1 9,12A2,2 0 0,1 7,14M12.65,10C11.83,7.67 9.61,6 7, 6A6, 6 0 0, 0 1, 12A6, 6 0 0, 0 7, 18C9.61, 18 11.83, 16.33 12.65, 14H17V18H21V14H23V10H12.65Z" class="i pk" transform="translate(67.69203125000001, 48) scale(0.65)"></path><text x="13" y="86" class="tf">title<tspan x="136.36" class="ty">VARCHAR(50)</tspan></text></svg></g></g><text class="qdbd-link" x="10" y="20">www.quickdatabasediagrams.com</text></svg>